# AST/ASF file generated using VICON BodyLanguage
# -----------------------------------------------
:version 1.10
:name VICON
:units
  mass 1.0
  length 0.45
  angle deg
:documentation
   .ast/.asf automatically generated from VICON data using
   VICON BodyBuilder and BodyLanguage model FoxedUp or BRILLIANT.MOD
:root
   order TX TY TZ RX RY RZ
   axis XYZ
   position 0 0 0  
   orientation 0 0 0 
:bonedata
  begin
     id 1 
     name lhipjoint
     direction 0.646821 -0.743844 0.168282 
     length 2.62284 
     axis 0 0 0  XYZ
  end
  begin
     id 2 
     name lfemur
     direction 0.34202 -0.939693 0  
     length 7.79098  
     axis 0 0 20  XYZ
    dof rx ry rz
    limits (-160.0 20.0)
           (-70.0 70.0)
           (-60.0 70.0)
  end
  begin
     id 3 
     name ltibia
     direction 0.34202 -0.939693 0   
     length 8.1986   
     axis 0 0 20   XYZ
    dof rx
    limits (-10.0 170.0)
  end
  begin
     id 4 
     name lfoot
     direction 0.0766762 -0.210666 0.974546   
     length 1.95107   
     axis -90 7.62852e-016 20   XYZ
    dof rx rz
    limits (-45.0 90.0)
           (-70.0 20.0)
  end
  begin
     id 5 
     name ltoes
     direction 1.53582e-011 -4.21539e-011 1   
     length 0.983514   
     axis -90 7.62852e-016 20   XYZ
    dof rx
    limits (-90.0 20.0)
  end
  begin
     id 6 
     name rhipjoint
     direction -0.658967 -0.733632 0.165972   
     length 2.65935  
     axis 0 0 0  XYZ 
  end
  begin
     id 7 
     name rfemur
     direction -0.34202 -0.939693 0   
     length 7.69405   
     axis 0 0 -20   XYZ
    dof rx ry rz
    limits (-160.0 20.0)
           (-70.0 70.0)
           (-70.0 60.0)
  end
  begin
     id 8 
     name rtibia
     direction -0.34202 -0.939693 0   
     length 8.15138   
     axis 0 0 -20   XYZ
    dof rx
    limits (-10.0 170.0)
 end
 begin
     id 9 
     name rfoot
     direction -0.0806473 -0.221577 0.971802   
     length 2.09362  
     axis -90 -7.62852e-016 -20   XYZ
    dof rx rz
    limits (-45.0 90.0)
           (-20.0 70.0)
  end
  begin
     id 10 
     name rtoes
     direction -1.53524e-011 -4.2203e-011 1   
     length 1.05224   
     axis -90 -7.62852e-016 -20   XYZ
    dof rx
    limits (-90.0 20.0)
  end
  begin
     id 11 
     name lowerback
     direction -0.0484271 0.997202 0.0569433   
     length 1.86801   
     axis 0 0 0   XYZ
    dof rx ry rz
    limits (-20.0 45.0)
           (-30.0 30.0)
           (-30.0 30.0)
  end
  begin
     id 12 
     name upperback
     direction 0.0148864 0.998882 0.0448682   
     length 1.86634   
     axis 0 0 0   XYZ
    dof rx ry rz
    limits (-20.0 45.0)
           (-30.0 30.0)
           (-30.0 30.0)
  end
  begin
     id 13 
     name thorax
     direction 0.0368776 0.99918 0.0167067   
     length 1.87554   
     axis 0 0 0   XYZ
    dof rx ry rz
    limits (-20.0 45.0)
           (-30.0 30.0)
           (-30.0 30.0)
  end
  begin
     id 14 
     name lowerneck
     direction -0.0200531 0.999751 0.00976032   
     length 1.82429   
     axis 0 0 0   XYZ
    dof rx ry rz
    limits (-20.0 45.0)
           (-30.0 30.0)
           (-30.0 30.0)
  end
  begin
     id 15 
     name upperneck
     direction 0.0113135 0.99728 -0.0728357   
     length 1.79098   
     axis 0 0 0   XYZ
    dof rx ry rz
    limits (-20.0 45.0)
           (-30.0 30.0)
           (-30.0 30.0)
  end
  begin
     id 16
     name head
     direction 0.00559662 0.999607 -0.0274604  
     length 1.88003  
     axis 0 0 0   XYZ
    dof rx ry rz
    limits (-20.0 45.0)
           (-30.0 30.0)
           (-30.0 30.0)
  end
  begin
     id 17 
     name lclavicle
     direction 0.931914 0.362632 -0.00585704  
     length 3.94155  
     axis 0 0 0   XYZ
    dof ry rz
    limits (-20.0 10.0)
           (0.0 20.0)
  end
  begin
     id 18 
     name lhumerus
     direction 1 -4.48969e-011 2.13403e-027   
     length 5.77473   
     axis 180 -30 -90   XYZ
    dof rx ry rz
    limits (-60.0 90.0)
           (-90.0 90.0)
           (-90.0 90.0)
  end
  begin
     id 19
     name lradius
     direction 1 -4.48969e-011 5.41017e-027   
     length 3.53732   
     axis 180 -30 -90   XYZ
    dof rx
    limits (-10.0 170.0)
  end
  begin
     id 20
     name lwrist
     direction 1 -4.48986e-011 1.36145e-026   
     length 1.76866   
     axis -8.75986e-015 90 90   XYZ
    dof ry
    limits (-180.0 0.0)
 end
  begin
     id 21 
     name lhand
     direction 1 -4.48703e-011 2.72291e-026   
     length 0.556229   
     axis -1.73745e-014 90 90   XYZ
    dof rx rz
    limits (-90.0 90.0)
           (-45.0 45.0)
  end
  begin
     id 22 
     name lfingers
     direction 1 -4.49204e-011 5.44582e-026   
     length 0.448446   
     axis -3.4749e-014 90 90   XYZ
    dof rx
    limits (0.0 90.0)
  end
  begin
     id 23
     name lthumb
     direction 0.707107 -6.34773e-011 0.707107   
     length 0.643881   
     axis -90 45 2.85299e-015   XYZ
    dof rx rz
    limits (-45.0 45.0)
           (-45.0 45.0)
  end
  begin
     id 24 
     name rclavicle
     direction -0.951782 0.300043 0.0639076   
     length 3.96398  
     axis 0 0 0   XYZ 
    dof ry rz
    limits (-10.0 20.0)
           (-20.0 0.0)
  end
  begin
     id 25 
     name rhumerus
     direction -1 -4.48967e-011 6.14867e-028  
     length 5.79581   
     axis 180 30 90   XYZ
    dof rx ry rz
    limits (-90.0 60.0)
           (-90.0 90.0)
           (-90.0 90.0)
  end
  begin
     id 26 
     name rradius
     direction -1 -4.48966e-011 9.26908e-027   
     length 3.37412   
     axis 180 30 90   XYZ
    dof rx
    limits (-10.0 170.0)
  end
  begin
     id 27 
     name rwrist
     direction -1 -4.48999e-011 1.36145e-026   
     length 1.68706   
     axis -8.75986e-015 -90 -90   XYZ
    dof ry
    limits (-180.0 0.0)
  end
  begin
     id 28
     name rhand
     direction -1 -4.49032e-011 2.72291e-026   
     length 0.680496   
     axis -1.73745e-014 -90 -90   XYZ
    dof rx rz
    limits (-90.0 90.0)
           (-45.0 45.0)
  end
  begin
     id 29
     name rfingers
     direction -1 -4.48876e-011 5.44582e-026   
     length 0.548633   
     axis -3.4749e-014 -90 -90   XYZ
    dof rx
    limits (0.0 90.0)
  end
  begin
     id 30
     name rthumb
     direction -0.707107 -6.34964e-011 0.707107   
     length 0.787731   
     axis -90 -45 -2.85299e-015   XYZ
    dof rx rz
    limits (-45.0 45.0)
           (-45.0 45.0)
  end
:hierarchy
  begin
    root lhipjoint rhipjoint lowerback
    lhipjoint lfemur
    lfemur ltibia
    ltibia lfoot
    lfoot ltoes
    rhipjoint rfemur
    rfemur rtibia
    rtibia rfoot
    rfoot rtoes
    lowerback upperback
    upperback thorax
    thorax lowerneck lclavicle rclavicle
    lowerneck upperneck
    upperneck head
    lclavicle lhumerus
    lhumerus lradius
    lradius lwrist
    lwrist lhand lthumb
    lhand lfingers
    rclavicle rhumerus
    rhumerus rradius
    rradius rwrist
    rwrist rhand rthumb
    rhand rfingers
  end

#!OML:ASF H:\Terrain\Patient Classification 1\PaulMetrics\March1\PaulMetrics.ASF
:FULLY-SPECIFIED
:DEGREES
16
root 27.0211 17.9653 -21.5496 13.7738 -18.9725 2.29565
lowerback -3.21599 -1.2312 -5.74524
upperback -4.9524 -1.5973 0.792178
thorax -3.14766 -0.599922 4.03234
lowerneck -6.38421 4.55571 1.49028
upperneck 5.09218 6.29114 -5.05926
head 2.99269 2.97726 -1.61235
rclavicle 2.66993e-014 -1.16289e-014
rhumerus -57.7413 18.6861 -99.2985
rradius 38.361
rwrist -8.57067
rhand -8.29658 -33.1651
rfingers 7.12502
rthumb 17.6235 -62.3863
lclavicle 2.66993e-014 -1.16289e-014
lhumerus -39.7967 -21.4928 82.8777
lradius 63.4204
lwrist 11.0209
lhand -23.1931 -7.72249
lfingers 7.12502
lthumb 3.2566 22.2324
rfemur -41.9011 2.34057 20.0155
rtibia 46.8093
rfoot -11.1611 -16.2387
rtoes -25.4891
lfemur -16.019 -2.83504 -26.3442
ltibia 25.7361
lfoot -24.5029 1.46604
ltoes -15.244
17
root 26.9833 17.9598 -21.4323 13.63 -18.4626 2.14013
lowerback -2.95927 -1.21294 -5.58367
upperback -4.79409 -1.58072 0.919
thorax -3.12751 -0.59781 4.0771
lowerneck -7.749 4.58348 0.0176688
upperneck 6.22671 6.40725 -3.44378
head 3.51563 3.02774 -0.781973
rclavicle -1.207e-014 -1.90833e-014
rhumerus -57.6472 18.7312 -99.1895
rradius 38.746
rwrist -8.70667
rhand -8.41538 -33.1083
rfingers 7.12502
rthumb 17.5091 -62.3398
lclavicle -1.207e-014 -1.90833e-014
lhumerus -39.2964 -21.918 83.0765
lradius 64.5292
lwrist 11.4063
lhand -22.9937 -7.91517
lfingers 7.12502
lthumb 3.44919 22.0367
rfemur -41.8523 2.88035 19.9303
rtibia 44.5018
rfoot -11.3506 -16.5345
rtoes -25.8564
lfemur -15.245 -2.79392 -26.1867
ltibia 25.4372
lfoot -24.6615 1.87186
ltoes -16.131
18
root 26.942 17.9516 -21.3188 13.7239 -17.9798 1.8871
lowerback -2.80058 -1.09184 -5.28504
upperback -4.77549 -1.42667 0.998119
thorax -3.21684 -0.526364 3.99559
lowerneck -10.0885 4.60923 -2.47708
upperneck 8.44643 6.60729 -0.578714
head 4.56184 3.13452 0.712234
rclavicle 2.74696e-014 -6.16232e-015
rhumerus -57.6053 18.5337 -99.1003
rradius 39.1581
rwrist -9.14482
rhand -8.48521 -32.8759
rfingers 7.12502
rthumb 17.4419 -62.1133
lclavicle 2.74696e-014 -6.16232e-015
lhumerus -38.908 -22.7585 83.3521
lradius 65.5602
lwrist 11.9317
lhand -22.9061 -8.5234
lfingers 7.12502
lthumb 3.5338 21.4271
rfemur -41.9736 3.5105 19.8979
rtibia 42.0253
rfoot -11.1391 -17.0351
rtoes -27.1378
lfemur -14.6931 -2.88515 -25.885
ltibia 25.1321
lfoot -24.8183 2.1068
ltoes -16.5643
19
root 26.9019 17.9492 -21.1949 13.8817 -17.4403 1.80455
lowerback -2.57788 -1.06441 -5.18647
upperback -4.80602 -1.39953 1.1323
thorax -3.37569 -0.507907 4.08508
lowerneck -11.8995 4.55502 -4.05541
upperneck 10.4029 6.68075 1.15888
head 4.89454 3.18795 1.51074
rclavicle -4.33972e-014 -1.13307e-014
rhumerus -57.5699 18.5202 -98.9696
rradius 39.666
rwrist -9.16796
rhand -8.55685 -32.9479
rfingers 7.12502
rthumb 17.373 -62.1914
lclavicle -4.33972e-014 -1.13307e-014
lhumerus -38.5103 -23.3838 83.683
lradius 66.6322
lwrist 12.2681
lhand -23.5914 -9.41521
lfingers 7.12502
lthumb 2.87201 20.5452
rfemur -42.1396 3.94019 19.6742
rtibia 39.4749
rfoot -10.9893 -17.3512
rtoes -27.5722
lfemur -14.2291 -3.00835 -25.7553
ltibia 24.8133
lfoot -24.9335 2.14916
ltoes -17.347
20
root 26.8599 17.9473 -21.0674 14.122 -17.0337 1.85873
lowerback -2.79302 -1.19007 -5.2456
upperback -4.91845 -1.55564 1.25567
thorax -3.35139 -0.5804 4.24339
lowerneck -8.59921 5.10468 0.27386
upperneck 7.4798 7.0828 -2.89943
head 4.12548 3.36435 -0.569528
rclavicle -2.54569e-014 1.76918e-014
rhumerus -57.7608 18.9545 -99.2103
rradius 40.0171
rwrist -9.12848
rhand -8.53612 -33.0109
rfingers 7.12502
rthumb 17.3929 -62.2528
lclavicle -2.54569e-014 1.76918e-014
lhumerus -38.6222 -23.2866 83.993
lradius 67.7858
lwrist 12.1556
lhand -24.6695 -9.87288
lfingers 7.12502
lthumb 1.83073 20.099
rfemur -42.3786 4.38981 19.2858
rtibia 36.908
rfoot -11.098 -17.4463
rtoes -25.6802
lfemur -13.7898 -3.02621 -25.8017
ltibia 24.3397
lfoot -24.9611 2.43888
ltoes -18.7716
21
root 26.8211 17.9497 -20.9322 14.3428 -16.5955 2.00376
lowerback -3.28078 -1.28465 -5.24515
upperback -4.90949 -1.6549 1.26899
thorax -3.05611 -0.63921 4.2441
lowerneck -5.67393 3.87731 1.35041
upperneck 3.86472 5.37117 -5.64101
head 2.43084 2.53023 -1.83795
rclavicle -1.82633e-015 3.27995e-014
rhumerus -57.6776 19.2979 -99.419
rradius 40.2258
rwrist -9.55404
rhand -8.88088 -32.6467
rfingers 7.12502
rthumb 17.0611 -61.9176
lclavicle -1.82633e-015 3.27995e-014
lhumerus -38.6651 -23.3121 84.3125
lradius 68.8709
lwrist 11.9815
lhand -25.2191 -9.49204
lfingers 7.12502
lthumb 1.29996 20.4837
rfemur -42.5239 4.56466 18.8766
rtibia 34.3297
rfoot -11.1627 -17.5554
rtoes -24.031
lfemur -13.2492 -3.13554 -25.9294
ltibia 23.7054
lfoot -24.8819 2.49845
ltoes -19.4096
22
root 26.7832 17.9589 -20.7889 14.4227 -16.1482 2.13448
lowerback -3.61505 -1.28533 -5.12875
upperback -4.86392 -1.63961 1.17087
thorax -2.82687 -0.644781 4.06751
lowerneck -6.78642 4.17494 0.46584
upperneck 5.34981 5.8102 -3.94016
head 3.0526 2.74868 -1.08166
rclavicle -1.70706e-014 1.98785e-015
rhumerus -57.5856 19.1657 -99.5274
rradius 40.5365
rwrist -9.5711
rhand -9.28764 -32.5617
rfingers 7.12502
rthumb 16.6695 -61.8659
lclavicle -1.70706e-014 1.98785e-015
lhumerus -38.5802 -23.9277 84.5866
lradius 69.9061
lwrist 12.1593
lhand -25.5402 -9.00438
lfingers 7.12502
lthumb 0.989864 20.9731
rfemur -42.4607 4.42699 18.6031
rtibia 31.7246
rfoot -11.0038 -17.5764
rtoes -24.6721
lfemur -12.5054 -3.39144 -26.023
ltibia 23.0066
lfoot -24.7621 2.4011
ltoes -19.1205
